<svg width="256" height="57" viewBox="0 0 256 57" fill="none" xmlns="http://www.w3.org/2000/svg">
<circle cx="23" cy="30" r="23" fill="#FFE12C"/>
<path d="M34.416 25.992H28.464V37.512C28.464 38.504 28.688 39.224 29.136 39.672C29.584 40.088 30.24 40.328 31.104 40.392C32 40.424 33.104 40.408 34.416 40.344V45C30.448 45.48 27.6 45.144 25.872 43.992C24.144 42.808 23.28 40.648 23.28 37.512V25.992H18.864V21H23.28V15.816L28.464 14.28V21H34.416V25.992ZM44.0138 16.44C43.3738 17.08 42.6058 17.4 41.7098 17.4C40.8138 17.4 40.0298 17.08 39.3578 16.44C38.7178 15.768 38.3978 14.984 38.3978 14.088C38.3978 13.192 38.7178 12.424 39.3578 11.784C39.9978 11.112 40.7818 10.776 41.7098 10.776C42.6378 10.776 43.4218 11.112 44.0618 11.784C44.7018 12.424 45.0218 13.192 45.0218 14.088C45.0218 14.984 44.6858 15.768 44.0138 16.44ZM39.1178 45V21H44.3018V45H39.1178ZM76.5289 20.376C79.2489 20.376 81.4409 21.256 83.1049 23.016C84.7689 24.776 85.6009 27.144 85.6009 30.12V45H80.4169V30.456C80.4169 28.792 80.0009 27.512 79.1689 26.616C78.3369 25.688 77.2009 25.224 75.7609 25.224C74.1609 25.224 72.8809 25.752 71.9209 26.808C70.9929 27.864 70.5289 29.448 70.5289 31.56V45H65.3449V30.456C65.3449 28.792 64.9449 27.512 64.1449 26.616C63.3769 25.688 62.2729 25.224 60.8329 25.224C59.2649 25.224 57.9849 25.768 56.9929 26.856C56.0009 27.912 55.5049 29.48 55.5049 31.56V45H50.3209V21H55.5049V23.88C57.0409 21.544 59.3289 20.376 62.3689 20.376C65.4409 20.376 67.7129 21.64 69.1849 24.168C70.7849 21.64 73.2329 20.376 76.5289 20.376ZM95.229 35.208C95.613 37.032 96.493 38.44 97.869 39.432C99.245 40.392 100.925 40.872 102.909 40.872C105.661 40.872 107.725 39.88 109.101 37.896L113.373 40.392C111.005 43.88 107.501 45.624 102.861 45.624C98.957 45.624 95.805 44.44 93.405 42.072C91.005 39.672 89.805 36.648 89.805 33C89.805 29.416 90.989 26.424 93.357 24.024C95.725 21.592 98.765 20.376 102.477 20.376C105.997 20.376 108.877 21.608 111.117 24.072C113.389 26.536 114.525 29.528 114.525 33.048C114.525 33.592 114.461 34.312 114.333 35.208H95.229ZM95.181 30.984H109.293C108.941 29.032 108.125 27.56 106.845 26.568C105.597 25.576 104.125 25.08 102.429 25.08C100.509 25.08 98.909 25.608 97.629 26.664C96.349 27.72 95.533 29.16 95.181 30.984ZM119.423 32.904V27.912H137.183V32.904H119.423ZM156.479 25.992H150.527V37.512C150.527 38.504 150.751 39.224 151.199 39.672C151.647 40.088 152.303 40.328 153.167 40.392C154.063 40.424 155.167 40.408 156.479 40.344V45C152.511 45.48 149.663 45.144 147.935 43.992C146.207 42.808 145.343 40.648 145.343 37.512V25.992H140.927V21H145.343V15.816L150.527 14.28V21H156.479V25.992ZM171.524 45.624C168.004 45.624 165.012 44.408 162.548 41.976C160.084 39.544 158.852 36.552 158.852 33C158.852 29.448 160.084 26.456 162.548 24.024C165.012 21.592 168.004 20.376 171.524 20.376C175.076 20.376 178.068 21.592 180.5 24.024C182.964 26.456 184.196 29.448 184.196 33C184.196 36.552 182.964 39.544 180.5 41.976C178.068 44.408 175.076 45.624 171.524 45.624ZM166.196 38.424C167.636 39.864 169.412 40.584 171.524 40.584C173.636 40.584 175.412 39.864 176.852 38.424C178.292 36.984 179.012 35.176 179.012 33C179.012 30.824 178.292 29.016 176.852 27.576C175.412 26.136 173.636 25.416 171.524 25.416C169.412 25.416 167.636 26.136 166.196 27.576C164.756 29.016 164.036 30.824 164.036 33C164.036 35.176 164.756 36.984 166.196 38.424ZM207.891 11.4H213.075V45H207.891V41.544C205.939 44.264 203.139 45.624 199.491 45.624C196.195 45.624 193.379 44.408 191.043 41.976C188.707 39.512 187.539 36.52 187.539 33C187.539 29.448 188.707 26.456 191.043 24.024C193.379 21.592 196.195 20.376 199.491 20.376C203.139 20.376 205.939 21.72 207.891 24.408V11.4ZM194.883 38.52C196.323 39.96 198.131 40.68 200.307 40.68C202.483 40.68 204.291 39.96 205.731 38.52C207.171 37.048 207.891 35.208 207.891 33C207.891 30.792 207.171 28.968 205.731 27.528C204.291 26.056 202.483 25.32 200.307 25.32C198.131 25.32 196.323 26.056 194.883 27.528C193.443 28.968 192.723 30.792 192.723 33C192.723 35.208 193.443 37.048 194.883 38.52ZM230.446 45.624C226.926 45.624 223.934 44.408 221.47 41.976C219.006 39.544 217.774 36.552 217.774 33C217.774 29.448 219.006 26.456 221.47 24.024C223.934 21.592 226.926 20.376 230.446 20.376C233.998 20.376 236.99 21.592 239.422 24.024C241.886 26.456 243.118 29.448 243.118 33C243.118 36.552 241.886 39.544 239.422 41.976C236.99 44.408 233.998 45.624 230.446 45.624ZM225.118 38.424C226.558 39.864 228.334 40.584 230.446 40.584C232.558 40.584 234.334 39.864 235.774 38.424C237.214 36.984 237.934 35.176 237.934 33C237.934 30.824 237.214 29.016 235.774 27.576C234.334 26.136 232.558 25.416 230.446 25.416C228.334 25.416 226.558 26.136 225.118 27.576C223.678 29.016 222.958 30.824 222.958 33C222.958 35.176 223.678 36.984 225.118 38.424ZM251.547 44.52C250.843 45.224 249.995 45.576 249.003 45.576C248.011 45.576 247.163 45.224 246.459 44.52C245.755 43.816 245.403 42.968 245.403 41.976C245.403 40.984 245.739 40.136 246.411 39.432C247.115 38.728 247.979 38.376 249.003 38.376C249.995 38.376 250.843 38.728 251.547 39.432C252.251 40.136 252.603 40.984 252.603 41.976C252.603 42.968 252.251 43.816 251.547 44.52Z" fill="black"/>
</svg>
