<?xml version="1.0" standalone="no"?>
<!DOCTYPE svg PUBLIC "-//W3C//DTD SVG 20010904//EN"
 "http://www.w3.org/TR/2001/REC-SVG-20010904/DTD/svg10.dtd">
<svg version="1.0" xmlns="http://www.w3.org/2000/svg"
 width="512.000000pt" height="512.000000pt" viewBox="0 0 512.000000 512.000000"
 preserveAspectRatio="xMidYMid meet">

<g transform="translate(0.000000,512.000000) scale(0.100000,-0.100000)"
fill="#000000" stroke="none">
<path d="M2725 3920 c-952 -114 -1743 -211 -1760 -215 -47 -12 -103 -43 -143
-80 l-38 -34 -275 -3 -274 -3 -50 -27 c-68 -35 -122 -92 -154 -158 l-26 -55
-3 -302 c-4 -376 -7 -369 136 -392 132 -21 230 -93 285 -209 56 -118 45 -246
-29 -358 -59 -88 -136 -136 -260 -159 -58 -12 -86 -22 -104 -41 l-25 -24 0
-313 0 -312 27 -57 c35 -74 103 -141 176 -170 l57 -23 1835 0 1835 0 67 33
c134 66 188 163 188 338 0 75 4 106 13 109 6 3 147 21 312 40 165 20 316 38
335 42 135 24 247 142 265 279 6 42 -41 499 -61 595 -11 54 -46 73 -148 80
-157 12 -257 75 -320 199 -56 112 -57 213 -5 324 47 100 148 178 266 206 105
24 108 40 67 385 -29 239 -38 288 -60 333 -31 63 -91 124 -154 155 -90 44
-103 43 -1975 -183z m1914 -15 c40 -34 47 -60 71 -270 11 -99 23 -189 25 -201
4 -18 -7 -27 -71 -58 -137 -68 -245 -191 -295 -336 -30 -87 -32 -249 -5 -330
75 -221 248 -374 457 -404 54 -8 46 21 80 -268 34 -288 43 -278 -325 -324
-144 -18 -289 -35 -323 -39 l-63 -7 0 92 c0 50 -5 100 -10 111 -15 27 -56 45
-121 53 -81 10 -165 54 -222 115 -135 145 -136 350 -2 499 55 61 130 99 230
116 64 11 84 19 102 40 23 27 23 29 23 331 0 283 -1 308 -21 360 -25 67 -94
141 -164 175 l-50 25 -1120 5 c-616 3 -1111 7 -1100 8 188 28 2750 330 2802
331 63 1 75 -2 102 -24z m-1589 -1142 l0 -627 27 -28 c54 -57 151 -26 167 53
3 18 6 301 6 630 l0 599 326 0 c284 0 329 -2 354 -16 57 -34 60 -50 60 -302
l0 -230 -37 -7 c-20 -3 -64 -20 -97 -35 -150 -72 -267 -217 -307 -380 -18 -75
-16 -212 5 -285 52 -179 200 -331 375 -385 l56 -18 3 -223 c3 -245 -1 -265
-52 -302 -30 -21 -38 -22 -358 -25 l-328 -3 0 88 c0 48 -5 105 -10 125 -21 74
-101 102 -157 54 -27 -23 -28 -28 -33 -143 l-5 -118 -1375 0 c-1309 0 -1377 1
-1403 18 -16 10 -37 32 -47 50 -18 29 -20 52 -20 254 l0 221 37 12 c256 78
423 295 423 550 0 242 -168 469 -399 540 l-56 18 -3 213 c-1 118 0 225 3 238
4 14 22 40 41 58 l35 33 1385 0 1384 0 0 -627z"/>
<path d="M1637 3049 c-10 -6 -65 -106 -123 -222 -59 -117 -107 -213 -108 -214
-1 -1 -106 -17 -234 -36 -200 -30 -237 -38 -257 -57 -29 -27 -39 -68 -26 -101
5 -14 84 -99 175 -190 l166 -164 -39 -230 c-35 -207 -38 -233 -25 -263 18 -43
73 -68 116 -53 17 6 116 56 220 111 l190 100 152 -79 c284 -148 273 -143 305
-136 43 9 81 51 81 89 0 17 -16 128 -36 246 l-36 215 171 170 c168 168 171
171 171 213 0 47 -29 87 -72 97 -21 4 -431 65 -443 65 -3 0 -52 94 -110 209
-59 119 -114 216 -127 225 -25 18 -84 21 -111 5z m212 -603 c16 -15 61 -26
173 -43 83 -13 153 -25 155 -27 2 -2 -48 -55 -111 -117 -97 -96 -116 -119
-116 -144 0 -16 11 -93 24 -170 13 -77 23 -141 21 -143 -1 -2 -63 29 -137 68
-83 43 -147 70 -166 70 -19 0 -82 -27 -163 -70 -73 -38 -134 -68 -136 -66 -2
2 8 71 22 154 19 111 23 157 15 177 -5 14 -59 73 -120 132 -61 58 -109 108
-107 109 2 2 68 13 147 25 80 11 157 27 171 35 20 10 47 52 100 156 l72 142
67 -134 c37 -74 77 -144 89 -154z"/>
<path d="M3081 1844 c-56 -47 -36 -141 35 -164 69 -23 140 42 126 116 -13 70
-103 97 -161 48z"/>
</g>
</svg>
