<svg width="28" height="28" viewBox="0 0 28 28" fill="none" xmlns="http://www.w3.org/2000/svg">
<path d="M13.9999 25.6666C7.55642 25.6666 2.33325 20.4435 2.33325 14C2.33325 7.55648 7.55642 2.33331 13.9999 2.33331C20.4434 2.33331 25.6666 7.55648 25.6666 14C25.6666 20.4435 20.4434 25.6666 13.9999 25.6666ZM13.9999 23.3333C16.4753 23.3333 18.8492 22.35 20.5996 20.5996C22.3499 18.8493 23.3333 16.4753 23.3333 14C23.3333 11.5246 22.3499 9.15066 20.5996 7.40032C18.8492 5.64998 16.4753 4.66665 13.9999 4.66665C11.5246 4.66665 9.1506 5.64998 7.40026 7.40032C5.64992 9.15066 4.66659 11.5246 4.66659 14C4.66659 16.4753 5.64992 18.8493 7.40026 20.5996C9.1506 22.35 11.5246 23.3333 13.9999 23.3333ZM13.9999 6.99998C15.2376 6.99998 16.4246 7.49164 17.2998 8.36682C18.1749 9.24198 18.6666 10.429 18.6666 11.6666V14C18.6666 15.2377 18.1749 16.4246 17.2998 17.2998C16.4246 18.175 15.2376 18.6666 13.9999 18.6666C12.7622 18.6666 11.5753 18.175 10.7001 17.2998C9.82492 16.4246 9.33325 15.2377 9.33325 14V11.6666C9.33325 10.429 9.82492 9.24198 10.7001 8.36682C11.5753 7.49164 12.7622 6.99998 13.9999 6.99998ZM13.9999 9.33331C13.3811 9.33331 12.7876 9.57915 12.35 10.0167C11.9124 10.4543 11.6666 11.0478 11.6666 11.6666V14C11.6666 14.6188 11.9124 15.2123 12.35 15.6499C12.7876 16.0875 13.3811 16.3333 13.9999 16.3333C14.6188 16.3333 15.2122 16.0875 15.6498 15.6499C16.0874 15.2123 16.3333 14.6188 16.3333 14V11.6666C16.3333 11.0478 16.0874 10.4543 15.6498 10.0167C15.2122 9.57915 14.6188 9.33331 13.9999 9.33331ZM9.22825 22.022C8.55623 21.6217 7.93697 21.1388 7.38492 20.5846C8.07789 19.7703 8.96111 19.1395 9.95625 18.7483C10.0997 18.6871 10.2539 18.6553 10.4099 18.6547C10.5658 18.6542 10.7203 18.6849 10.8642 18.745C11.0081 18.8052 11.1384 18.8936 11.2475 19.005C11.3567 19.1164 11.4424 19.2485 11.4995 19.3936C11.5567 19.5387 11.5842 19.6938 11.5804 19.8497C11.5766 20.0056 11.5416 20.1592 11.4775 20.3013C11.4133 20.4434 11.3213 20.5713 11.2069 20.6773C11.0925 20.7832 10.958 20.8652 10.8114 20.9183C10.1908 21.1633 9.65292 21.546 9.22709 22.022H9.22825ZM18.7296 22.0476C18.2779 21.548 17.7141 21.1626 17.0846 20.923C16.937 20.8718 16.8013 20.7915 16.6854 20.6868C16.5694 20.5822 16.4757 20.4554 16.4097 20.3138C16.3437 20.1723 16.3068 20.0189 16.3012 19.8629C16.2955 19.7068 16.3213 19.5512 16.3769 19.4053C16.4325 19.2593 16.5169 19.1261 16.625 19.0133C16.733 18.9006 16.8627 18.8107 17.0061 18.749C17.1496 18.6873 17.304 18.6551 17.4601 18.6541C17.6163 18.6532 17.7711 18.6837 17.9153 18.7436C18.9464 19.1358 19.8626 19.7804 20.5799 20.6185C20.0252 21.1702 19.4036 21.6504 18.7296 22.0476Z" fill="black"/>
</svg>
