<svg width="28" height="28" viewBox="0 0 28 28" fill="none" xmlns="http://www.w3.org/2000/svg">
<path d="M19.8334 23.3334H25.6667V21C25.6667 19.067 24.0997 17.5 22.1667 17.5C21.0518 17.5 20.0587 18.0213 19.4178 18.8334M19.8334 23.3334H8.16671M19.8334 23.3334V21C19.8334 20.2344 19.6859 19.5032 19.4178 18.8334M8.16671 23.3334H2.33337V21C2.33337 19.067 3.90038 17.5 5.83337 17.5C6.94825 17.5 7.94138 18.0213 8.58233 18.8334M8.16671 23.3334V21C8.16671 20.2344 8.3142 19.5032 8.58233 18.8334M8.58233 18.8334C9.44246 16.6846 11.544 15.1667 14 15.1667C16.4561 15.1667 18.5576 16.6846 19.4178 18.8334M17.5 8.16669C17.5 10.0997 15.933 11.6667 14 11.6667C12.067 11.6667 10.5 10.0997 10.5 8.16669C10.5 6.23369 12.067 4.66669 14 4.66669C15.933 4.66669 17.5 6.23369 17.5 8.16669ZM24.5 11.6667C24.5 12.9554 23.4554 14 22.1667 14C20.878 14 19.8334 12.9554 19.8334 11.6667C19.8334 10.378 20.878 9.33335 22.1667 9.33335C23.4554 9.33335 24.5 10.378 24.5 11.6667ZM8.16671 11.6667C8.16671 12.9554 7.12204 14 5.83337 14C4.54471 14 3.50004 12.9554 3.50004 11.6667C3.50004 10.378 4.54471 9.33335 5.83337 9.33335C7.12204 9.33335 8.16671 10.378 8.16671 11.6667Z" stroke="black" stroke-width="2" stroke-linecap="round" stroke-linejoin="round"/>
</svg>
